<svg id="Layer_1" height="512" viewBox="0 0 128 128" width="512" xmlns="http://www.w3.org/2000/svg" data-name="Layer 1"><path d="m24.192 71.75a7.75 7.75 0 1 0 -7.75-7.75 7.759 7.759 0 0 0 7.75 7.75zm0-12a4.25 4.25 0 1 1 -4.25 4.25 4.255 4.255 0 0 1 4.25-4.25z"/><path d="m121.5 42.346h-115a1.75 1.75 0 0 0 -1.75 1.754v39.8a1.75 1.75 0 0 0 1.75 1.75h115a1.75 1.75 0 0 0 1.75-1.75v-39.8a1.75 1.75 0 0 0 -1.75-1.754zm-1.75 39.808h-111.5v-36.308h111.5z"/><path d="m58.131 70.203h-11.295v-18.334h-3.968v21.982h15.263z"/><path d="m61.428 51.869h3.968v21.982h-3.968z"/><path d="m82.002 73.851 9.184-21.982h-4.448l-6.975 16.671-6.976-16.671h-4.416l9.184 21.982z"/><path d="m110.642 70.203h-12.543v-5.727h11.359v-3.648h-11.359v-5.311h12.543v-3.648h-16.543v21.982h16.543z"/></svg>